<mxfile host="app.diagrams.net" modified="2022-04-25T04:38:40.421Z" agent="5.0 (Windows NT 10.0; Win64; x64) AppleWebKit/537.36 (KHTML, like Gecko) Chrome/100.0.4896.88 Safari/537.36" etag="28tTLTlDEIZ2gqD99Zs5" version="17.4.6" type="github">
  <diagram id="4iMt0J-JafovkDGiA1-8" name="Page-1">
    <mxGraphModel dx="1422" dy="738" grid="1" gridSize="10" guides="1" tooltips="1" connect="1" arrows="1" fold="1" page="1" pageScale="1" pageWidth="827" pageHeight="1169" math="0" shadow="0">
      <root>
        <mxCell id="0" />
        <mxCell id="1" parent="0" />
        <mxCell id="4DwHok1q7puBWAiUuw1M-1" value="" style="whiteSpace=wrap;html=1;aspect=fixed;dashed=1;rounded=0;strokeColor=none;" vertex="1" parent="1">
          <mxGeometry x="121" y="106" width="719" height="719" as="geometry" />
        </mxCell>
        <mxCell id="4DwHok1q7puBWAiUuw1M-2" value="" style="endArrow=none;html=1;rounded=0;edgeStyle=orthogonalEdgeStyle;dashed=1;" edge="1" parent="1">
          <mxGeometry width="50" height="50" relative="1" as="geometry">
            <mxPoint x="841" y="145" as="sourcePoint" />
            <mxPoint x="121" y="145" as="targetPoint" />
          </mxGeometry>
        </mxCell>
        <mxCell id="4DwHok1q7puBWAiUuw1M-5" value="" style="endArrow=none;html=1;rounded=0;entryX=0.5;entryY=0;entryDx=0;entryDy=0;" edge="1" parent="1">
          <mxGeometry width="50" height="50" relative="1" as="geometry">
            <mxPoint x="446" y="825" as="sourcePoint" />
            <mxPoint x="446" y="107" as="targetPoint" />
          </mxGeometry>
        </mxCell>
        <mxCell id="4DwHok1q7puBWAiUuw1M-6" value="" style="endArrow=none;html=1;rounded=0;entryX=0.75;entryY=0;entryDx=0;entryDy=0;" edge="1" parent="1">
          <mxGeometry width="50" height="50" relative="1" as="geometry">
            <mxPoint x="595" y="826" as="sourcePoint" />
            <mxPoint x="594.5" y="108" as="targetPoint" />
          </mxGeometry>
        </mxCell>
        <mxCell id="4DwHok1q7puBWAiUuw1M-7" value="&lt;font style=&quot;font-size: 16px&quot;&gt;Tok&lt;/font&gt;" style="text;html=1;strokeColor=none;fillColor=none;align=center;verticalAlign=middle;whiteSpace=wrap;rounded=0;fontFamily=Times New Roman;" vertex="1" parent="1">
          <mxGeometry x="111" y="111" width="60" height="30" as="geometry" />
        </mxCell>
        <mxCell id="4DwHok1q7puBWAiUuw1M-8" value="&lt;font style=&quot;font-size: 16px&quot;&gt;SRL PA1&lt;/font&gt;" style="text;html=1;strokeColor=none;fillColor=none;align=center;verticalAlign=middle;whiteSpace=wrap;rounded=0;fontFamily=Times New Roman;" vertex="1" parent="1">
          <mxGeometry x="210" y="111" width="80" height="30" as="geometry" />
        </mxCell>
        <mxCell id="4DwHok1q7puBWAiUuw1M-10" value="1927&lt;br&gt;年&lt;br&gt;4&lt;br&gt;月&lt;br&gt;，&lt;br&gt;国民党&lt;br&gt;内&lt;br&gt;&lt;font color=&quot;#ea6b66&quot;&gt;蒋介石&lt;br&gt;集团&lt;br&gt;和&lt;br&gt;汪精卫&lt;/font&gt;&lt;br&gt;集团&lt;br&gt;相继&lt;br&gt;&lt;font color=&quot;#ea6b66&quot;&gt;叛变&lt;/font&gt;&lt;br&gt;革命&lt;br&gt;后&lt;br&gt;，&lt;br&gt;广东省&lt;br&gt;国名党&lt;br&gt;当局&lt;br&gt;亦&lt;br&gt;在&lt;br&gt;广州&lt;br&gt;等&lt;br&gt;地&lt;br&gt;大肆&lt;br&gt;屠杀&lt;br&gt;共产党人&lt;br&gt;和&lt;br&gt;革命&lt;br&gt;人民&lt;br&gt;，&lt;br&gt;实行&lt;br&gt;白色恐怖&lt;br&gt;。" style="text;html=1;strokeColor=none;fillColor=none;align=left;verticalAlign=middle;whiteSpace=wrap;rounded=0;fontFamily=Times New Roman;fontSize=16;" vertex="1" parent="1">
          <mxGeometry x="130" y="470" width="70" height="30" as="geometry" />
        </mxCell>
        <mxCell id="4DwHok1q7puBWAiUuw1M-11" value="" style="endArrow=none;html=1;rounded=0;entryX=0.122;entryY=0.001;entryDx=0;entryDy=0;entryPerimeter=0;edgeStyle=orthogonalEdgeStyle;exitX=0.125;exitY=1;exitDx=0;exitDy=0;exitPerimeter=0;" edge="1" parent="1" source="4DwHok1q7puBWAiUuw1M-1" target="4DwHok1q7puBWAiUuw1M-1">
          <mxGeometry width="50" height="50" relative="1" as="geometry">
            <mxPoint x="209" y="800" as="sourcePoint" />
            <mxPoint x="210" y="110" as="targetPoint" />
            <Array as="points">
              <mxPoint x="209" y="826" />
            </Array>
          </mxGeometry>
        </mxCell>
        <mxCell id="4DwHok1q7puBWAiUuw1M-13" value="" style="endArrow=classic;startArrow=classic;html=1;rounded=1;dashed=1;fontFamily=Times New Roman;fontSize=16;fillColor=#f8cecc;strokeColor=#b85450;" edge="1" parent="1">
          <mxGeometry width="50" height="50" relative="1" as="geometry">
            <mxPoint x="220" y="370" as="sourcePoint" />
            <mxPoint x="220" y="300" as="targetPoint" />
            <Array as="points">
              <mxPoint x="240" y="370" />
              <mxPoint x="240" y="300" />
            </Array>
          </mxGeometry>
        </mxCell>
        <mxCell id="4DwHok1q7puBWAiUuw1M-14" value="" style="endArrow=classic;html=1;rounded=0;dashed=1;fontFamily=Times New Roman;fontSize=16;fillColor=#f8cecc;strokeColor=#b85450;" edge="1" parent="1">
          <mxGeometry width="50" height="50" relative="1" as="geometry">
            <mxPoint x="241" y="336" as="sourcePoint" />
            <mxPoint x="261" y="336" as="targetPoint" />
          </mxGeometry>
        </mxCell>
        <mxCell id="4DwHok1q7puBWAiUuw1M-16" value="ARG0" style="text;html=1;strokeColor=#b85450;fillColor=#f8cecc;align=center;verticalAlign=middle;whiteSpace=wrap;rounded=1;fontFamily=Times New Roman;fontSize=16;" vertex="1" parent="1">
          <mxGeometry x="267" y="320" width="52" height="30" as="geometry" />
        </mxCell>
        <mxCell id="4DwHok1q7puBWAiUuw1M-18" value="" style="endArrow=classic;html=1;rounded=0;fontFamily=Times New Roman;fontSize=16;fillColor=#f8cecc;strokeColor=#000000;" edge="1" parent="1">
          <mxGeometry width="50" height="50" relative="1" as="geometry">
            <mxPoint x="221" y="389" as="sourcePoint" />
            <mxPoint x="261" y="389" as="targetPoint" />
          </mxGeometry>
        </mxCell>
        <mxCell id="4DwHok1q7puBWAiUuw1M-19" value="ARGM-ADV" style="text;html=1;strokeColor=none;fillColor=none;align=center;verticalAlign=middle;whiteSpace=wrap;rounded=0;fontFamily=Times New Roman;fontSize=16;" vertex="1" parent="1">
          <mxGeometry x="252" y="374" width="106" height="30" as="geometry" />
        </mxCell>
        <mxCell id="4DwHok1q7puBWAiUuw1M-20" value="" style="endArrow=classic;html=1;rounded=0;fontFamily=Times New Roman;fontSize=16;entryX=0;entryY=1;entryDx=0;entryDy=0;fillColor=#f8cecc;strokeColor=#b85450;" edge="1" parent="1">
          <mxGeometry width="50" height="50" relative="1" as="geometry">
            <mxPoint x="220" y="411" as="sourcePoint" />
            <mxPoint x="261" y="411" as="targetPoint" />
          </mxGeometry>
        </mxCell>
        <mxCell id="4DwHok1q7puBWAiUuw1M-21" value="PRED" style="text;html=1;strokeColor=#b85450;fillColor=#f8cecc;align=center;verticalAlign=middle;whiteSpace=wrap;rounded=1;fontFamily=Times New Roman;fontSize=16;" vertex="1" parent="1">
          <mxGeometry x="263" y="400" width="49" height="30" as="geometry" />
        </mxCell>
        <mxCell id="4DwHok1q7puBWAiUuw1M-22" value="" style="shape=link;html=1;rounded=0;fontFamily=Times New Roman;fontSize=16;startArrow=classic;startFill=1;fillColor=#f8cecc;strokeColor=#b85450;" edge="1" parent="1">
          <mxGeometry width="100" relative="1" as="geometry">
            <mxPoint x="222" y="401" as="sourcePoint" />
            <mxPoint x="222" y="421" as="targetPoint" />
          </mxGeometry>
        </mxCell>
        <mxCell id="4DwHok1q7puBWAiUuw1M-23" value="" style="endArrow=none;html=1;rounded=0;" edge="1" parent="1">
          <mxGeometry width="50" height="50" relative="1" as="geometry">
            <mxPoint x="357" y="827" as="sourcePoint" />
            <mxPoint x="357" y="107" as="targetPoint" />
          </mxGeometry>
        </mxCell>
        <mxCell id="4DwHok1q7puBWAiUuw1M-24" value="&lt;font style=&quot;font-size: 16px&quot;&gt;Tok&lt;/font&gt;" style="text;html=1;strokeColor=none;fillColor=none;align=center;verticalAlign=middle;whiteSpace=wrap;rounded=0;fontFamily=Times New Roman;" vertex="1" parent="1">
          <mxGeometry x="350" y="111" width="60" height="30" as="geometry" />
        </mxCell>
        <mxCell id="4DwHok1q7puBWAiUuw1M-25" value="1927&lt;br&gt;年&lt;br&gt;4&lt;br&gt;月&lt;br&gt;，&lt;br&gt;国民党&lt;br&gt;内&lt;br&gt;蒋介石&lt;br&gt;集团&lt;br&gt;和&lt;br&gt;汪精卫&lt;br&gt;集团&lt;br&gt;相继&lt;br&gt;叛变&lt;br&gt;革命&lt;br&gt;后&lt;br&gt;，&lt;br&gt;&lt;font color=&quot;#ea6b66&quot;&gt;广东省&lt;br&gt;国名党&lt;br&gt;当局&lt;/font&gt;&lt;br&gt;亦&lt;br&gt;在&lt;br&gt;广州&lt;br&gt;等&lt;br&gt;地&lt;br&gt;大肆&lt;br&gt;&lt;font color=&quot;#ea6b66&quot;&gt;屠杀&lt;/font&gt;&lt;br&gt;&lt;font color=&quot;#ea6b66&quot;&gt;共产党人&lt;br&gt;和&lt;br&gt;革命&lt;br&gt;人民&lt;/font&gt;&lt;br&gt;，&lt;br&gt;实行&lt;br&gt;白色恐怖&lt;br&gt;。" style="text;html=1;strokeColor=none;fillColor=none;align=left;verticalAlign=middle;whiteSpace=wrap;rounded=0;fontFamily=Times New Roman;fontSize=16;" vertex="1" parent="1">
          <mxGeometry x="368" y="469" width="70" height="30" as="geometry" />
        </mxCell>
        <mxCell id="4DwHok1q7puBWAiUuw1M-26" value="&lt;font style=&quot;font-size: 16px&quot;&gt;SRL PA2&lt;/font&gt;" style="text;html=1;strokeColor=none;fillColor=none;align=center;verticalAlign=middle;whiteSpace=wrap;rounded=0;fontFamily=Times New Roman;" vertex="1" parent="1">
          <mxGeometry x="450" y="111" width="80" height="30" as="geometry" />
        </mxCell>
        <mxCell id="4DwHok1q7puBWAiUuw1M-27" value="" style="endArrow=classic;startArrow=classic;html=1;rounded=1;dashed=1;fontFamily=Times New Roman;fontSize=16;" edge="1" parent="1">
          <mxGeometry width="50" height="50" relative="1" as="geometry">
            <mxPoint x="458" y="220" as="sourcePoint" />
            <mxPoint x="458" y="156" as="targetPoint" />
            <Array as="points">
              <mxPoint x="478" y="220" />
              <mxPoint x="478" y="156" />
            </Array>
          </mxGeometry>
        </mxCell>
        <mxCell id="4DwHok1q7puBWAiUuw1M-28" value="" style="endArrow=classic;html=1;rounded=0;dashed=1;fontFamily=Times New Roman;fontSize=16;" edge="1" parent="1">
          <mxGeometry width="50" height="50" relative="1" as="geometry">
            <mxPoint x="479" y="190" as="sourcePoint" />
            <mxPoint x="499" y="190" as="targetPoint" />
          </mxGeometry>
        </mxCell>
        <mxCell id="4DwHok1q7puBWAiUuw1M-29" value="ARGM-TMP" style="text;html=1;strokeColor=none;fillColor=none;align=center;verticalAlign=middle;whiteSpace=wrap;rounded=0;fontFamily=Times New Roman;fontSize=16;" vertex="1" parent="1">
          <mxGeometry x="491" y="175" width="101" height="30" as="geometry" />
        </mxCell>
        <mxCell id="4DwHok1q7puBWAiUuw1M-30" value="" style="endArrow=classic;startArrow=classic;html=1;rounded=1;dashed=1;fontFamily=Times New Roman;fontSize=16;" edge="1" parent="1">
          <mxGeometry width="50" height="50" relative="1" as="geometry">
            <mxPoint x="459" y="450" as="sourcePoint" />
            <mxPoint x="459" y="256" as="targetPoint" />
            <Array as="points">
              <mxPoint x="479" y="450" />
              <mxPoint x="479" y="256" />
            </Array>
          </mxGeometry>
        </mxCell>
        <mxCell id="4DwHok1q7puBWAiUuw1M-31" value="" style="endArrow=classic;html=1;rounded=0;dashed=1;fontFamily=Times New Roman;fontSize=16;" edge="1" parent="1">
          <mxGeometry width="50" height="50" relative="1" as="geometry">
            <mxPoint x="479" y="352" as="sourcePoint" />
            <mxPoint x="499" y="352" as="targetPoint" />
          </mxGeometry>
        </mxCell>
        <mxCell id="4DwHok1q7puBWAiUuw1M-32" value="ARGM-TMP" style="text;html=1;strokeColor=none;fillColor=none;align=center;verticalAlign=middle;whiteSpace=wrap;rounded=0;fontFamily=Times New Roman;fontSize=16;" vertex="1" parent="1">
          <mxGeometry x="491" y="337" width="101" height="30" as="geometry" />
        </mxCell>
        <mxCell id="4DwHok1q7puBWAiUuw1M-33" value="" style="endArrow=classic;startArrow=classic;html=1;rounded=1;dashed=1;fontFamily=Times New Roman;fontSize=16;fillColor=#f8cecc;strokeColor=#b85450;" edge="1" parent="1">
          <mxGeometry width="50" height="50" relative="1" as="geometry">
            <mxPoint x="460" y="522" as="sourcePoint" />
            <mxPoint x="458" y="484" as="targetPoint" />
            <Array as="points">
              <mxPoint x="478" y="522" />
              <mxPoint x="478" y="484" />
            </Array>
          </mxGeometry>
        </mxCell>
        <mxCell id="4DwHok1q7puBWAiUuw1M-34" value="" style="endArrow=classic;html=1;rounded=0;dashed=1;fontFamily=Times New Roman;fontSize=16;fillColor=#f8cecc;strokeColor=#b85450;" edge="1" parent="1">
          <mxGeometry width="50" height="50" relative="1" as="geometry">
            <mxPoint x="478" y="507" as="sourcePoint" />
            <mxPoint x="498" y="507" as="targetPoint" />
          </mxGeometry>
        </mxCell>
        <mxCell id="4DwHok1q7puBWAiUuw1M-35" value="ARG0" style="text;html=1;strokeColor=#b85450;fillColor=#f8cecc;align=center;verticalAlign=middle;whiteSpace=wrap;rounded=1;fontFamily=Times New Roman;fontSize=16;" vertex="1" parent="1">
          <mxGeometry x="500" y="493" width="49" height="30" as="geometry" />
        </mxCell>
        <mxCell id="4DwHok1q7puBWAiUuw1M-37" value="" style="endArrow=classic;html=1;rounded=0;fontFamily=Times New Roman;fontSize=16;" edge="1" parent="1">
          <mxGeometry width="50" height="50" relative="1" as="geometry">
            <mxPoint x="458" y="541" as="sourcePoint" />
            <mxPoint x="498" y="541" as="targetPoint" />
          </mxGeometry>
        </mxCell>
        <mxCell id="4DwHok1q7puBWAiUuw1M-38" value="ARGM-ADV" style="text;html=1;strokeColor=none;fillColor=none;align=center;verticalAlign=middle;whiteSpace=wrap;rounded=0;fontFamily=Times New Roman;fontSize=16;" vertex="1" parent="1">
          <mxGeometry x="491" y="526" width="101" height="30" as="geometry" />
        </mxCell>
        <mxCell id="4DwHok1q7puBWAiUuw1M-39" value="" style="endArrow=classic;startArrow=classic;html=1;rounded=1;dashed=1;fontFamily=Times New Roman;fontSize=16;" edge="1" parent="1">
          <mxGeometry width="50" height="50" relative="1" as="geometry">
            <mxPoint x="460" y="620" as="sourcePoint" />
            <mxPoint x="459" y="563" as="targetPoint" />
            <Array as="points">
              <mxPoint x="480" y="620" />
              <mxPoint x="479" y="563" />
            </Array>
          </mxGeometry>
        </mxCell>
        <mxCell id="4DwHok1q7puBWAiUuw1M-40" value="" style="endArrow=classic;html=1;rounded=0;dashed=1;fontFamily=Times New Roman;fontSize=16;" edge="1" parent="1">
          <mxGeometry width="50" height="50" relative="1" as="geometry">
            <mxPoint x="481" y="602" as="sourcePoint" />
            <mxPoint x="501" y="602" as="targetPoint" />
          </mxGeometry>
        </mxCell>
        <mxCell id="4DwHok1q7puBWAiUuw1M-41" value="ARGM-LOC" style="text;html=1;strokeColor=none;fillColor=none;align=center;verticalAlign=middle;whiteSpace=wrap;rounded=0;fontFamily=Times New Roman;fontSize=16;" vertex="1" parent="1">
          <mxGeometry x="493" y="587" width="101" height="30" as="geometry" />
        </mxCell>
        <mxCell id="4DwHok1q7puBWAiUuw1M-42" value="" style="endArrow=classic;html=1;rounded=0;fontFamily=Times New Roman;fontSize=16;" edge="1" parent="1">
          <mxGeometry width="50" height="50" relative="1" as="geometry">
            <mxPoint x="459" y="639" as="sourcePoint" />
            <mxPoint x="499" y="639" as="targetPoint" />
          </mxGeometry>
        </mxCell>
        <mxCell id="4DwHok1q7puBWAiUuw1M-43" value="ARGM-ADV" style="text;html=1;strokeColor=none;fillColor=none;align=center;verticalAlign=middle;whiteSpace=wrap;rounded=0;fontFamily=Times New Roman;fontSize=16;" vertex="1" parent="1">
          <mxGeometry x="492" y="625" width="101" height="30" as="geometry" />
        </mxCell>
        <mxCell id="4DwHok1q7puBWAiUuw1M-45" value="" style="shape=link;html=1;rounded=0;fontFamily=Times New Roman;fontSize=16;startArrow=classic;startFill=1;fillColor=#f8cecc;strokeColor=#b85450;" edge="1" parent="1">
          <mxGeometry width="100" relative="1" as="geometry">
            <mxPoint x="461" y="649" as="sourcePoint" />
            <mxPoint x="461" y="669" as="targetPoint" />
          </mxGeometry>
        </mxCell>
        <mxCell id="4DwHok1q7puBWAiUuw1M-46" value="" style="endArrow=classic;html=1;rounded=0;fontFamily=Times New Roman;fontSize=16;fillColor=#f8cecc;strokeColor=#b85450;" edge="1" parent="1">
          <mxGeometry width="50" height="50" relative="1" as="geometry">
            <mxPoint x="459" y="659" as="sourcePoint" />
            <mxPoint x="499" y="659" as="targetPoint" />
          </mxGeometry>
        </mxCell>
        <mxCell id="4DwHok1q7puBWAiUuw1M-48" value="PRED" style="text;html=1;strokeColor=#b85450;fillColor=#f8cecc;align=center;verticalAlign=middle;whiteSpace=wrap;rounded=1;fontFamily=Times New Roman;fontSize=16;" vertex="1" parent="1">
          <mxGeometry x="501" y="650" width="48" height="30" as="geometry" />
        </mxCell>
        <mxCell id="4DwHok1q7puBWAiUuw1M-49" value="" style="endArrow=classic;startArrow=classic;html=1;rounded=1;dashed=1;fontFamily=Times New Roman;fontSize=16;fillColor=#f8cecc;strokeColor=#b85450;" edge="1" parent="1">
          <mxGeometry width="50" height="50" relative="1" as="geometry">
            <mxPoint x="460" y="735" as="sourcePoint" />
            <mxPoint x="459" y="678" as="targetPoint" />
            <Array as="points">
              <mxPoint x="480" y="735" />
              <mxPoint x="479" y="678" />
            </Array>
          </mxGeometry>
        </mxCell>
        <mxCell id="4DwHok1q7puBWAiUuw1M-50" value="" style="endArrow=classic;html=1;rounded=0;dashed=1;fontFamily=Times New Roman;fontSize=16;fillColor=#f8cecc;strokeColor=#b85450;" edge="1" parent="1">
          <mxGeometry width="50" height="50" relative="1" as="geometry">
            <mxPoint x="480" y="706" as="sourcePoint" />
            <mxPoint x="500" y="706" as="targetPoint" />
          </mxGeometry>
        </mxCell>
        <mxCell id="4DwHok1q7puBWAiUuw1M-51" value="ARG1" style="text;html=1;strokeColor=#b85450;fillColor=#f8cecc;align=center;verticalAlign=middle;whiteSpace=wrap;rounded=1;fontFamily=Times New Roman;fontSize=16;" vertex="1" parent="1">
          <mxGeometry x="501" y="691" width="52" height="30" as="geometry" />
        </mxCell>
        <mxCell id="4DwHok1q7puBWAiUuw1M-52" value="&lt;font style=&quot;font-size: 16px&quot;&gt;Tok&lt;/font&gt;" style="text;html=1;strokeColor=none;fillColor=none;align=center;verticalAlign=middle;whiteSpace=wrap;rounded=0;fontFamily=Times New Roman;" vertex="1" parent="1">
          <mxGeometry x="587" y="111" width="60" height="30" as="geometry" />
        </mxCell>
        <mxCell id="4DwHok1q7puBWAiUuw1M-53" value="1927&lt;br&gt;年&lt;br&gt;4&lt;br&gt;月&lt;br&gt;，&lt;br&gt;国民党&lt;br&gt;内&lt;br&gt;蒋介石&lt;br&gt;集团&lt;br&gt;和&lt;br&gt;汪精卫&lt;br&gt;集团&lt;br&gt;相继&lt;br&gt;叛变&lt;br&gt;革命&lt;br&gt;后&lt;br&gt;，&lt;br&gt;&lt;font color=&quot;#ea6b66&quot;&gt;广东省&lt;br&gt;国名党&lt;br&gt;当局&lt;/font&gt;&lt;br&gt;亦&lt;br&gt;在&lt;br&gt;广州&lt;br&gt;等&lt;br&gt;地&lt;br&gt;大肆&lt;br&gt;屠杀&lt;br&gt;共产党人&lt;br&gt;和&lt;br&gt;革命&lt;br&gt;人民&lt;br&gt;，&lt;br&gt;&lt;font color=&quot;#ea6b66&quot;&gt;实行&lt;br&gt;白色恐怖&lt;/font&gt;&lt;br&gt;。" style="text;html=1;strokeColor=none;fillColor=none;align=left;verticalAlign=middle;whiteSpace=wrap;rounded=0;fontFamily=Times New Roman;fontSize=16;" vertex="1" parent="1">
          <mxGeometry x="605" y="471" width="70" height="30" as="geometry" />
        </mxCell>
        <mxCell id="4DwHok1q7puBWAiUuw1M-54" value="" style="endArrow=none;html=1;rounded=0;entryX=0.75;entryY=0;entryDx=0;entryDy=0;" edge="1" parent="1">
          <mxGeometry width="50" height="50" relative="1" as="geometry">
            <mxPoint x="688" y="825" as="sourcePoint" />
            <mxPoint x="687.5" y="108" as="targetPoint" />
          </mxGeometry>
        </mxCell>
        <mxCell id="4DwHok1q7puBWAiUuw1M-55" value="&lt;font style=&quot;font-size: 16px&quot;&gt;SRL PA3&lt;/font&gt;" style="text;html=1;strokeColor=none;fillColor=none;align=center;verticalAlign=middle;whiteSpace=wrap;rounded=0;fontFamily=Times New Roman;" vertex="1" parent="1">
          <mxGeometry x="690" y="111" width="80" height="30" as="geometry" />
        </mxCell>
        <mxCell id="4DwHok1q7puBWAiUuw1M-56" value="" style="endArrow=classic;startArrow=classic;html=1;rounded=1;dashed=1;fontFamily=Times New Roman;fontSize=16;" edge="1" parent="1">
          <mxGeometry width="50" height="50" relative="1" as="geometry">
            <mxPoint x="697" y="220" as="sourcePoint" />
            <mxPoint x="697" y="156" as="targetPoint" />
            <Array as="points">
              <mxPoint x="717" y="220" />
              <mxPoint x="717" y="156" />
            </Array>
          </mxGeometry>
        </mxCell>
        <mxCell id="4DwHok1q7puBWAiUuw1M-57" value="" style="endArrow=classic;html=1;rounded=0;dashed=1;fontFamily=Times New Roman;fontSize=16;" edge="1" parent="1">
          <mxGeometry width="50" height="50" relative="1" as="geometry">
            <mxPoint x="717" y="190" as="sourcePoint" />
            <mxPoint x="737" y="190" as="targetPoint" />
          </mxGeometry>
        </mxCell>
        <mxCell id="4DwHok1q7puBWAiUuw1M-58" value="ARGM-TMP" style="text;html=1;strokeColor=none;fillColor=none;align=center;verticalAlign=middle;whiteSpace=wrap;rounded=0;fontFamily=Times New Roman;fontSize=16;" vertex="1" parent="1">
          <mxGeometry x="730" y="175" width="101" height="30" as="geometry" />
        </mxCell>
        <mxCell id="4DwHok1q7puBWAiUuw1M-59" value="" style="endArrow=classic;startArrow=classic;html=1;rounded=1;dashed=1;fontFamily=Times New Roman;fontSize=16;" edge="1" parent="1">
          <mxGeometry width="50" height="50" relative="1" as="geometry">
            <mxPoint x="696" y="450" as="sourcePoint" />
            <mxPoint x="696" y="256" as="targetPoint" />
            <Array as="points">
              <mxPoint x="716" y="450" />
              <mxPoint x="716" y="256" />
            </Array>
          </mxGeometry>
        </mxCell>
        <mxCell id="4DwHok1q7puBWAiUuw1M-60" value="" style="endArrow=classic;html=1;rounded=0;dashed=1;fontFamily=Times New Roman;fontSize=16;" edge="1" parent="1">
          <mxGeometry width="50" height="50" relative="1" as="geometry">
            <mxPoint x="717" y="353" as="sourcePoint" />
            <mxPoint x="737" y="353" as="targetPoint" />
          </mxGeometry>
        </mxCell>
        <mxCell id="4DwHok1q7puBWAiUuw1M-61" value="ARGM-TMP" style="text;html=1;strokeColor=none;fillColor=none;align=center;verticalAlign=middle;whiteSpace=wrap;rounded=0;fontFamily=Times New Roman;fontSize=16;" vertex="1" parent="1">
          <mxGeometry x="730" y="338" width="101" height="30" as="geometry" />
        </mxCell>
        <mxCell id="4DwHok1q7puBWAiUuw1M-62" value="" style="endArrow=classic;startArrow=classic;html=1;rounded=1;dashed=1;fontFamily=Times New Roman;fontSize=16;fillColor=#f8cecc;strokeColor=#b85450;" edge="1" parent="1">
          <mxGeometry width="50" height="50" relative="1" as="geometry">
            <mxPoint x="697" y="522" as="sourcePoint" />
            <mxPoint x="695" y="484" as="targetPoint" />
            <Array as="points">
              <mxPoint x="715" y="522" />
              <mxPoint x="715" y="484" />
            </Array>
          </mxGeometry>
        </mxCell>
        <mxCell id="4DwHok1q7puBWAiUuw1M-63" value="" style="endArrow=classic;html=1;rounded=0;dashed=1;fontFamily=Times New Roman;fontSize=16;fillColor=#f8cecc;strokeColor=#b85450;" edge="1" parent="1">
          <mxGeometry width="50" height="50" relative="1" as="geometry">
            <mxPoint x="715" y="508" as="sourcePoint" />
            <mxPoint x="735" y="508" as="targetPoint" />
          </mxGeometry>
        </mxCell>
        <mxCell id="4DwHok1q7puBWAiUuw1M-64" value="ARG0" style="text;html=1;strokeColor=#b85450;fillColor=#f8cecc;align=center;verticalAlign=middle;whiteSpace=wrap;rounded=1;fontFamily=Times New Roman;fontSize=16;" vertex="1" parent="1">
          <mxGeometry x="737" y="493" width="50" height="30" as="geometry" />
        </mxCell>
        <mxCell id="4DwHok1q7puBWAiUuw1M-65" value="" style="endArrow=classic;html=1;rounded=0;fontFamily=Times New Roman;fontSize=16;" edge="1" parent="1">
          <mxGeometry width="50" height="50" relative="1" as="geometry">
            <mxPoint x="695" y="541" as="sourcePoint" />
            <mxPoint x="735" y="541" as="targetPoint" />
          </mxGeometry>
        </mxCell>
        <mxCell id="4DwHok1q7puBWAiUuw1M-66" value="ARGM-ADV" style="text;html=1;strokeColor=none;fillColor=none;align=center;verticalAlign=middle;whiteSpace=wrap;rounded=0;fontFamily=Times New Roman;fontSize=16;" vertex="1" parent="1">
          <mxGeometry x="728" y="526" width="101" height="30" as="geometry" />
        </mxCell>
        <mxCell id="4DwHok1q7puBWAiUuw1M-67" value="" style="endArrow=classic;startArrow=classic;html=1;rounded=1;dashed=1;fontFamily=Times New Roman;fontSize=16;" edge="1" parent="1">
          <mxGeometry width="50" height="50" relative="1" as="geometry">
            <mxPoint x="695" y="620" as="sourcePoint" />
            <mxPoint x="694" y="563" as="targetPoint" />
            <Array as="points">
              <mxPoint x="715" y="620" />
              <mxPoint x="714" y="563" />
            </Array>
          </mxGeometry>
        </mxCell>
        <mxCell id="4DwHok1q7puBWAiUuw1M-68" value="" style="endArrow=classic;html=1;rounded=0;dashed=1;fontFamily=Times New Roman;fontSize=16;" edge="1" parent="1">
          <mxGeometry width="50" height="50" relative="1" as="geometry">
            <mxPoint x="715" y="602" as="sourcePoint" />
            <mxPoint x="735" y="602" as="targetPoint" />
          </mxGeometry>
        </mxCell>
        <mxCell id="4DwHok1q7puBWAiUuw1M-69" value="ARGM-LOC" style="text;html=1;strokeColor=none;fillColor=none;align=center;verticalAlign=middle;whiteSpace=wrap;rounded=0;fontFamily=Times New Roman;fontSize=16;" vertex="1" parent="1">
          <mxGeometry x="726" y="588" width="101" height="30" as="geometry" />
        </mxCell>
        <mxCell id="4DwHok1q7puBWAiUuw1M-70" value="" style="shape=link;html=1;rounded=0;fontFamily=Times New Roman;fontSize=16;startArrow=classic;startFill=1;fillColor=#f8cecc;strokeColor=#b85450;" edge="1" parent="1">
          <mxGeometry width="100" relative="1" as="geometry">
            <mxPoint x="698" y="763" as="sourcePoint" />
            <mxPoint x="698" y="783" as="targetPoint" />
          </mxGeometry>
        </mxCell>
        <mxCell id="4DwHok1q7puBWAiUuw1M-71" value="" style="endArrow=classic;html=1;rounded=0;fontFamily=Times New Roman;fontSize=16;fillColor=#f8cecc;strokeColor=#b85450;" edge="1" parent="1">
          <mxGeometry width="50" height="50" relative="1" as="geometry">
            <mxPoint x="696" y="772" as="sourcePoint" />
            <mxPoint x="736" y="772" as="targetPoint" />
          </mxGeometry>
        </mxCell>
        <mxCell id="4DwHok1q7puBWAiUuw1M-72" value="PRED" style="text;html=1;strokeColor=#b85450;fillColor=#f8cecc;align=center;verticalAlign=middle;whiteSpace=wrap;rounded=1;fontFamily=Times New Roman;fontSize=16;" vertex="1" parent="1">
          <mxGeometry x="738" y="751" width="50" height="30" as="geometry" />
        </mxCell>
        <mxCell id="4DwHok1q7puBWAiUuw1M-73" value="" style="endArrow=classic;html=1;rounded=0;fontFamily=Times New Roman;fontSize=16;fillColor=#f8cecc;strokeColor=#b85450;" edge="1" parent="1">
          <mxGeometry width="50" height="50" relative="1" as="geometry">
            <mxPoint x="696" y="794" as="sourcePoint" />
            <mxPoint x="736" y="794" as="targetPoint" />
          </mxGeometry>
        </mxCell>
        <mxCell id="4DwHok1q7puBWAiUuw1M-74" value="ARG1" style="text;html=1;strokeColor=#b85450;fillColor=#f8cecc;align=center;verticalAlign=middle;whiteSpace=wrap;rounded=1;fontFamily=Times New Roman;fontSize=16;" vertex="1" parent="1">
          <mxGeometry x="739" y="785" width="49" height="30" as="geometry" />
        </mxCell>
      </root>
    </mxGraphModel>
  </diagram>
</mxfile>
